<?xml version="1.0" encoding="UTF-8"?>
<!-- Generator: Adobe Illustrator 19.0.0, SVG Export Plug-In . SVG Version: 6.00 Build 0)  -->
<svg version="1.1" id="Capa_1" xmlns="http://www.w3.org/2000/svg" xmlns:xlink="http://www.w3.org/1999/xlink" x="0px" y="0px" viewBox="0 0 595.3 841.9" style="enable-background:new 0 0 595.3 841.9;" xml:space="preserve">
<style type="text/css">
	.st0{fill:#fff;}
	.st1{fill:#9FA1A2;}
	.st2{fill:#fff;}
</style>
<g id="XMLID_1_">
	<g id="XMLID_47_">
		<path id="XMLID_77_" class="st2" d="M374.5,664c0-9.1-11.3-16.4-25.3-16.4H248c-14,0-25.3,7.4-25.3,16.4    c0,9.1,11.3,16.4,25.3,16.4h101.2C363.2,680.4,374.5,673.1,374.5,664L374.5,664z"/>
		<path id="XMLID_69_" class="st2" d="M425.1,614.6c0-9.1-11.3-16.4-25.3-16.4H197.4c-14,0-25.3,7.4-25.3,16.4s11.3,16.4,25.3,16.4    h202.4C413.8,631.1,425.1,623.7,425.1,614.6L425.1,614.6z"/>
		<path id="XMLID_49_" class="st2" d="M475.7,565.3c0-9.1-11.3-16.4-25.3-16.4H146.8c-14,0-25.3,7.4-25.3,16.4    c0,9.1,11.3,16.4,25.3,16.4h303.6C464.4,581.7,475.7,574.4,475.7,565.3L475.7,565.3z"/>
		<path id="XMLID_48_" class="st2" d="M450.5,532.4H146.8c-14,0-25.3-7.4-25.3-16.4c0-9.1,11.3-16.4,25.3-16.4h303.6    c14,0,25.3,7.4,25.3,16.4C475.7,525,464.4,532.4,450.5,532.4L450.5,532.4z"/>
	</g>
	<g id="XMLID_38_">
		<path id="XMLID_39_" class="st0" d="M207.4,203.3c0,1.4-0.5,2.6-1.4,3.5c-0.9,0.9-2.1,1.4-3.5,1.4h-18.2c-1.4,0-2.6-0.5-3.5-1.4    c-0.9-0.9-1.4-2.1-1.4-3.5v-58.8c0-1.4,0.5-2.6,1.4-3.5c0.9-0.9,2.1-1.4,3.5-1.4h18.2c1.4,0,2.6,0.5,3.5,1.4    c0.9,0.9,1.4,2.1,1.4,3.5V203.3z M201.3,202.8V145h-15.8v57.8H201.3z"/>
		<path id="XMLID_42_" class="st0" d="M225.2,208.2h-6.1v-47.5h-2.7v-0.2l3.9-20.8h5V208.2z"/>
		<path id="XMLID_44_" class="st0" d="M264.6,203.3c0,1.4-0.5,2.6-1.4,3.5c-0.9,0.9-2.1,1.4-3.5,1.4h-18.2c-1.4,0-2.6-0.5-3.5-1.4    c-0.9-0.9-1.4-2.1-1.4-3.5v-58.8c0-1.4,0.5-2.6,1.4-3.5c0.9-0.9,2.1-1.4,3.5-1.4h18.2c1.4,0,2.6,0.5,3.5,1.4    c0.9,0.9,1.4,2.1,1.4,3.5V203.3z M258.5,202.8V145h-15.8v57.8H258.5z"/>
		<path id="XMLID_50_" class="st0" d="M303.5,203.3c0,1.4-0.5,2.6-1.4,3.5c-0.9,0.9-2.1,1.4-3.5,1.4h-18.2c-1.4,0-2.6-0.5-3.5-1.4    c-0.9-0.9-1.4-2.1-1.4-3.5v-58.8c0-1.4,0.5-2.6,1.4-3.5c0.9-0.9,2.1-1.4,3.5-1.4h18.2c1.4,0,2.6,0.5,3.5,1.4    c0.9,0.9,1.4,2.1,1.4,3.5V203.3z M297.4,202.8V145h-15.8v57.8H297.4z"/>
		<path id="XMLID_53_" class="st0" d="M342.5,203.3c0,1.4-0.5,2.6-1.4,3.5c-0.9,0.9-2.1,1.4-3.5,1.4h-18.2c-1.4,0-2.6-0.5-3.5-1.4    s-1.4-2.1-1.4-3.5v-58.8c0-1.4,0.5-2.6,1.4-3.5s2.1-1.4,3.5-1.4h18.2c1.4,0,2.6,0.5,3.5,1.4c0.9,0.9,1.4,2.1,1.4,3.5V203.3z     M336.4,202.8V145h-15.8v57.8H336.4z"/>
		<path id="XMLID_72_" class="st0" d="M360.3,208.2h-6.1v-47.5h-2.7v-0.2l3.9-20.8h5V208.2z"/>
		<path id="XMLID_74_" class="st0" d="M399.6,203.3c0,1.4-0.5,2.6-1.4,3.5c-0.9,0.9-2.1,1.4-3.5,1.4h-18.2c-1.4,0-2.6-0.5-3.5-1.4    s-1.4-2.1-1.4-3.5v-58.8c0-1.4,0.5-2.6,1.4-3.5s2.1-1.4,3.5-1.4h18.2c1.4,0,2.6,0.5,3.5,1.4c0.9,0.9,1.4,2.1,1.4,3.5V203.3z     M393.6,202.8V145h-15.8v57.8H393.6z"/>
		<path id="XMLID_78_" class="st0" d="M417.4,208.2h-6.1v-47.5h-2.7v-0.2l3.9-20.8h5V208.2z"/>
		<path id="XMLID_80_" class="st0" d="M207.4,311c0,1.4-0.5,2.6-1.4,3.5c-0.9,0.9-2.1,1.4-3.5,1.4h-18.2c-1.4,0-2.6-0.5-3.5-1.4    c-0.9-0.9-1.4-2.1-1.4-3.5v-58.8c0-1.4,0.5-2.6,1.4-3.5c0.9-0.9,2.1-1.4,3.5-1.4h18.2c1.4,0,2.6,0.5,3.5,1.4    c0.9,0.9,1.4,2.1,1.4,3.5V311z M201.3,310.5v-57.8h-15.8v57.8H201.3z"/>
		<path id="XMLID_83_" class="st0" d="M225.2,315.9h-6.1v-47.5h-2.7v-0.2l3.9-20.8h5V315.9z"/>
		<path id="XMLID_85_" class="st0" d="M264.6,311c0,1.4-0.5,2.6-1.4,3.5c-0.9,0.9-2.1,1.4-3.5,1.4h-18.2c-1.4,0-2.6-0.5-3.5-1.4    c-0.9-0.9-1.4-2.1-1.4-3.5v-58.8c0-1.4,0.5-2.6,1.4-3.5c0.9-0.9,2.1-1.4,3.5-1.4h18.2c1.4,0,2.6,0.5,3.5,1.4    c0.9,0.9,1.4,2.1,1.4,3.5V311z M258.5,310.5v-57.8h-15.8v57.8H258.5z"/>
		<path id="XMLID_88_" class="st0" d="M303.5,311c0,1.4-0.5,2.6-1.4,3.5c-0.9,0.9-2.1,1.4-3.5,1.4h-18.2c-1.4,0-2.6-0.5-3.5-1.4    c-0.9-0.9-1.4-2.1-1.4-3.5v-58.8c0-1.4,0.5-2.6,1.4-3.5c0.9-0.9,2.1-1.4,3.5-1.4h18.2c1.4,0,2.6,0.5,3.5,1.4    c0.9,0.9,1.4,2.1,1.4,3.5V311z M297.4,310.5v-57.8h-15.8v57.8H297.4z"/>
		<path id="XMLID_92_" class="st0" d="M342.5,311c0,1.4-0.5,2.6-1.4,3.5c-0.9,0.9-2.1,1.4-3.5,1.4h-18.2c-1.4,0-2.6-0.5-3.5-1.4    s-1.4-2.1-1.4-3.5v-58.8c0-1.4,0.5-2.6,1.4-3.5s2.1-1.4,3.5-1.4h18.2c1.4,0,2.6,0.5,3.5,1.4c0.9,0.9,1.4,2.1,1.4,3.5V311z     M336.4,310.5v-57.8h-15.8v57.8H336.4z"/>
		<path id="XMLID_95_" class="st0" d="M360.3,315.9h-6.1v-47.5h-2.7v-0.2l3.9-20.8h5V315.9z"/>
		<path id="XMLID_97_" class="st0" d="M378.5,315.9h-6.1v-47.5h-2.7v-0.2l3.9-20.8h5V315.9z"/>
		<path id="XMLID_99_" class="st0" d="M417.9,311c0,1.4-0.5,2.6-1.4,3.5c-0.9,0.9-2.1,1.4-3.5,1.4h-18.2c-1.4,0-2.6-0.5-3.5-1.4    s-1.4-2.1-1.4-3.5v-58.8c0-1.4,0.5-2.6,1.4-3.5s2.1-1.4,3.5-1.4h18.2c1.4,0,2.6,0.5,3.5,1.4c0.9,0.9,1.4,2.1,1.4,3.5V311z     M411.8,310.5v-57.8H396v57.8H411.8z"/>
		<path id="XMLID_102_" class="st0" d="M197,418.7c0,1.4-0.5,2.6-1.4,3.5c-0.9,0.9-2.1,1.4-3.5,1.4h-18.2c-1.4,0-2.6-0.5-3.5-1.4    c-0.9-0.9-1.4-2.1-1.4-3.5v-58.8c0-1.4,0.5-2.6,1.4-3.5c0.9-0.9,2.1-1.4,3.5-1.4h18.2c1.4,0,2.6,0.5,3.5,1.4    c0.9,0.9,1.4,2.1,1.4,3.5V418.7z M191,418.1v-57.8h-15.8v57.8H191z"/>
		<path id="XMLID_105_" class="st0" d="M214.8,423.5h-6.1V376H206v-0.2l3.9-20.8h5V423.5z"/>
		<path id="XMLID_107_" class="st0" d="M254.2,418.7c0,1.4-0.5,2.6-1.4,3.5c-0.9,0.9-2.1,1.4-3.5,1.4h-18.2c-1.4,0-2.6-0.5-3.5-1.4    c-0.9-0.9-1.4-2.1-1.4-3.5v-58.8c0-1.4,0.5-2.6,1.4-3.5c0.9-0.9,2.1-1.4,3.5-1.4h18.2c1.4,0,2.6,0.5,3.5,1.4    c0.9,0.9,1.4,2.1,1.4,3.5V418.7z M248.1,418.1v-57.8h-15.8v57.8H248.1z"/>
		<path id="XMLID_110_" class="st0" d="M293.2,418.7c0,1.4-0.5,2.6-1.4,3.5c-0.9,0.9-2.1,1.4-3.5,1.4H270c-1.4,0-2.6-0.5-3.5-1.4    c-0.9-0.9-1.4-2.1-1.4-3.5v-58.8c0-1.4,0.5-2.6,1.4-3.5c0.9-0.9,2.1-1.4,3.5-1.4h18.2c1.4,0,2.6,0.5,3.5,1.4    c0.9,0.9,1.4,2.1,1.4,3.5V418.7z M287.1,418.1v-57.8h-15.8v57.8H287.1z"/>
		<path id="XMLID_113_" class="st0" d="M311,423.5h-6.1V376h-2.7v-0.2L306,355h5V423.5z"/>
		<path id="XMLID_115_" class="st0" d="M350.3,418.7c0,1.4-0.5,2.6-1.4,3.5c-0.9,0.9-2.1,1.4-3.5,1.4h-18.2c-1.4,0-2.6-0.5-3.5-1.4    s-1.4-2.1-1.4-3.5v-58.8c0-1.4,0.5-2.6,1.4-3.5s2.1-1.4,3.5-1.4h18.2c1.4,0,2.6,0.5,3.5,1.4c0.9,0.9,1.4,2.1,1.4,3.5V418.7z     M344.2,418.1v-57.8h-15.8v57.8H344.2z"/>
		<path id="XMLID_118_" class="st0" d="M389.3,418.7c0,1.4-0.5,2.6-1.4,3.5c-0.9,0.9-2.1,1.4-3.5,1.4h-18.2c-1.4,0-2.6-0.5-3.5-1.4    s-1.4-2.1-1.4-3.5v-58.8c0-1.4,0.5-2.6,1.4-3.5s2.1-1.4,3.5-1.4h18.2c1.4,0,2.6,0.5,3.5,1.4c0.9,0.9,1.4,2.1,1.4,3.5V418.7z     M383.2,418.1v-57.8h-15.8v57.8H383.2z"/>
		<path id="XMLID_121_" class="st0" d="M428.2,418.7c0,1.4-0.5,2.6-1.4,3.5c-0.9,0.9-2.1,1.4-3.5,1.4h-18.2c-1.4,0-2.6-0.5-3.5-1.4    s-1.4-2.1-1.4-3.5v-58.8c0-1.4,0.5-2.6,1.4-3.5s2.1-1.4,3.5-1.4h18.2c1.4,0,2.6,0.5,3.5,1.4c0.9,0.9,1.4,2.1,1.4,3.5V418.7z     M422.1,418.1v-57.8h-15.8v57.8H422.1z"/>
	</g>
	<g id="XMLID_8_">
		<g id="XMLID_9_">
			<path id="XMLID_13_" class="st0" d="M52.6,265c36.1,0,41.2-19.8,41.2-37.7c0-14.3-2-28.5-4.1-42.7c-2-14.3-4.1-28-4.1-42.2     c0-46.8,31-66.7,74.3-66.7h100.3V104l-99.3-0.3c-29.5,0.5-40.2,16.3-40.2,43.8c0,11.7,2,23.9,3.6,36.1c2,12.7,4.1,24.9,4.1,38.7     c0,32.6-14.2,48.8-36.6,55v1c22.4,5.6,36.6,22.9,36.6,55.5c0,13.7-2,26.5-4.1,38.7c-1.5,12.7-3.6,24.4-3.6,36.6     c0,28.5,12.2,43.8,40.7,44.3l98.8,0v28H159.4c-41.7,0-73.8-18.3-73.8-69.7c0-13.7,2-28,4.1-41.7c2-13.7,4.1-27.5,4.1-41.2     c0-15.8-5.1-37.7-41.2-37.7V265z"/>
		</g>
		<g id="XMLID_18_">
			<path id="XMLID_19_" class="st0" d="M544,290.9c-36.1,0-41.2,21.9-41.2,37.7c0,13.7,2,27.5,4.1,41.2c2,13.7,4.1,28,4.1,41.7     c0,51.4-32.1,69.7-73.8,69.7H336.3v-28l98.8,0c28.5-0.5,40.7-15.8,40.7-44.3c0-12.2-2-23.9-3.6-36.6c-2-12.2-4.1-24.9-4.1-38.7     c0-32.6,14.2-49.9,36.6-55.5v-1c-22.4-6.1-36.6-22.4-36.6-55c0-13.7,2-26,4.1-38.7c1.5-12.2,3.6-24.4,3.6-36.1     c0-27.5-10.7-43.3-40.2-43.8l-99.3,0.3V75.7h100.3c43.2,0,74.3,19.8,74.3,66.7c0,14.2-2,28-4.1,42.2c-2,14.2-4.1,28.5-4.1,42.7     c0,17.8,5.1,37.7,41.2,37.7V290.9z"/>
		</g>
	</g>
</g>
</svg>